<?xml version="1.0" encoding="UTF-8" standalone="no"?>
<svg xmlns:cc="http://creativecommons.org/ns#" xmlns:dc="http://purl.org/dc/elements/1.1/"
    xmlns:inkscape="http://www.inkscape.org/namespaces/inkscape"
    xmlns:rdf="http://www.w3.org/1999/02/22-rdf-syntax-ns#"
    xmlns:sodipodi="http://sodipodi.sourceforge.net/DTD/sodipodi-0.dtd" height="17.5" id="svg64"
    version="1.1" viewBox="0 0 22.5 17.5" width="22.5" xmlns="http://www.w3.org/2000/svg"
    inkscape:version="1.0 (4035a4f, 2020-05-01)" sodipodi:docname="menu.svg">
    <metadata id="metadata68">
        <rdf:RDF>
            <cc:Work rdf:about="">
                <dc:format>image/svg+xml</dc:format>
                <dc:type rdf:resource="http://purl.org/dc/dcmitype/StillImage" />
            </cc:Work>
        </rdf:RDF>
    </metadata>
    <sodipodi:namedview bordercolor="#666666" borderopacity="1" gridtolerance="10"
        guidetolerance="10" id="namedview66" objecttolerance="10" pagecolor="#ffffff"
        showgrid="false" inkscape:current-layer="_22_Icons_Filled_Star" inkscape:cx="11.29788"
        inkscape:cy="8.75" inkscape:pageopacity="0" inkscape:pageshadow="2"
        inkscape:window-height="1027" inkscape:window-maximized="1" inkscape:window-width="1920"
        inkscape:window-x="0" inkscape:window-y="27" inkscape:zoom="41.771429" />
    <defs id="defs60">
        <clipPath id="clip-path">
            <path
                d="M1.25,17.5a1.25,1.25,0,1,1,0-2.5h20a1.25,1.25,0,1,1,0,2.5Zm0-7.5a1.25,1.25,0,1,1,0-2.5h20a1.25,1.25,0,0,1,0,2.5Zm0-7.5a1.25,1.25,0,0,1,0-2.5h20a1.25,1.25,0,0,1,0,2.5Z"
                data-name="🎨 Icon Color" fill="#0d8e53" id="_Icon_Color"
                transform="translate(0.75 0.25)" />
        </clipPath>
    </defs>
    <g data-name="22) Icons/Filled/Star" id="_22_Icons_Filled_Star"
        transform="translate(-0.75 -0.25)">
        <path style="fill:#ffffff"
            d="M1.09,17.5a1.261,1.261,0,0,1,0-2.5H18.531a1.261,1.261,0,0,1,0,2.5ZM.841,10C.376,10,0,9.44,0,8.75S.376,7.5.841,7.5H14.286c.464,0,.841.56.841,1.25S14.75,10,14.286,10Zm.41-7.5a1.25,1.25,0,0,1,0-2.5h20a1.25,1.25,0,0,1,0,2.5Z"
            data-name="🎨 Icon Color" fill="#0d8e53" id="_Icon_Color-2"
            transform="translate(0.75 0.25)" />
    </g>
</svg>
